<?xml version="1.0" encoding="utf-8"?>
<!-- Generator: Adobe Illustrator 27.6.1, SVG Export Plug-In . SVG Version: 6.00 Build 0)  -->
<svg version="1.1" xmlns="http://www.w3.org/2000/svg" xmlns:xlink="http://www.w3.org/1999/xlink" x="0px" y="0px"
	 viewBox="0 0 160.69 86.93" style="enable-background:new 0 0 160.69 86.93;" xml:space="preserve">
<style type="text/css">
	.st0{fill:#417EC1;}
	.st1{opacity:0.39;fill:#5F5F60;}
</style>
<g id="BACKGROUND">
</g>
<g id="OBJECTS">
	<path class="st0" d="M11.23,7.44h13.61c-0.31,1.21-0.48,2.48-0.48,3.78v75.71h-5.23V19.62c0-4.03-3.27-7.31-7.3-7.31
		c-2.02,0-3.85,0.82-5.17,2.14c-1.32,1.33-2.14,3.16-2.14,5.17v67.31H0V18.67C0,12.47,5.03,7.44,11.23,7.44z"/>
	<path class="st0" d="M135.04,8.7v1.74H76.23C67.28,10.44,60,17.72,60,26.67v60.26H48.49V12.18c0-4.04-3.27-7.31-7.31-7.31
		c-2.01,0-3.84,0.82-5.16,2.14c-1.32,1.32-2.14,3.15-2.14,5.17v74.75h-4.52V11.22C29.36,5.02,34.39,0,40.59,0h85.75
		C131.15,0,135.04,3.89,135.04,8.7z"/>
	<path class="st0" d="M160.69,24.15v62.78H84.13V27.62c0-4.03-3.27-7.31-7.3-7.31c-2.02,0-3.85,0.82-5.17,2.14
		c-1.32,1.33-2.14,3.16-2.14,5.17v59.31H65V26.67c0-6.2,5.03-11.23,11.23-11.23h75.76C156.79,15.44,160.69,19.34,160.69,24.15z"/>
	<path class="st1" d="M8.59,18.5v68.43h-1V18.5c0-0.27,0.22-0.51,0.5-0.51C8.37,17.99,8.59,18.22,8.59,18.5z"/>
	<path class="st1" d="M11.97,18.5v68.43h-1V18.5c0-0.27,0.22-0.51,0.5-0.51C11.75,17.99,11.97,18.22,11.97,18.5z"/>
	<path class="st1" d="M15.35,18.5v68.43h-1V18.5c0-0.27,0.22-0.51,0.5-0.51C15.13,17.99,15.35,18.22,15.35,18.5z"/>
	<path class="st1" d="M37.95,11.05v75.88h-1V11.05c0-0.28,0.22-0.5,0.5-0.5C37.72,10.55,37.95,10.77,37.95,11.05z"/>
	<path class="st1" d="M41.33,11.05v75.88h-1V11.05c0-0.28,0.22-0.5,0.5-0.5C41.1,10.55,41.33,10.77,41.33,11.05z"/>
	<path class="st1" d="M44.71,11.05v75.88h-1V11.05c0-0.28,0.22-0.5,0.5-0.5C44.48,10.55,44.71,10.77,44.71,11.05z"/>
	<path class="st1" d="M73.59,26.49v60.44h-1V26.49c0-0.27,0.22-0.5,0.5-0.5C73.37,25.99,73.59,26.22,73.59,26.49z"/>
	<path class="st1" d="M76.97,26.49v60.44h-1V26.49c0-0.27,0.22-0.5,0.5-0.5C76.75,25.99,76.97,26.22,76.97,26.49z"/>
	<path class="st1" d="M80.35,26.49v60.44h-1V26.49c0-0.27,0.22-0.5,0.5-0.5C80.13,25.99,80.35,26.22,80.35,26.49z"/>
</g>
</svg>
